<svg width="18" height="19" viewBox="0 0 18 19" fill="none" xmlns="http://www.w3.org/2000/svg">
<path d="M1.5 18.5C1.1 18.5 0.75 18.35 0.45 18.05C0.15 17.75 0 17.4 0 17V3.925C0 3.675 0.025 3.4625 0.075 3.2875C0.125 3.1125 0.216667 2.95 0.35 2.8L1.75 0.9C1.88333 0.75 2.0375 0.645833 2.2125 0.5875C2.3875 0.529167 2.59167 0.5 2.825 0.5H15.175C15.4083 0.5 15.6083 0.529167 15.775 0.5875C15.9417 0.645833 16.0917 0.75 16.225 0.9L17.65 2.8C17.7833 2.95 17.875 3.1125 17.925 3.2875C17.975 3.4625 18 3.675 18 3.925V17C18 17.4 17.85 17.75 17.55 18.05C17.25 18.35 16.9 18.5 16.5 18.5H1.5ZM1.925 3.15H16.05L15.15 2H2.825L1.925 3.15ZM1.5 17H16.5V4.65H1.5V17ZM9 14.45C9.1 14.45 9.19167 14.4333 9.275 14.4C9.35833 14.3667 9.44167 14.3083 9.525 14.225L12.4 11.35C12.5333 11.2167 12.6 11.05 12.6 10.85C12.6 10.65 12.5333 10.4833 12.4 10.35C12.2667 10.2167 12.1 10.15 11.9 10.15C11.7 10.15 11.5333 10.2167 11.4 10.35L9.75 12V7.725C9.75 7.50833 9.67917 7.32917 9.5375 7.1875C9.39583 7.04583 9.21667 6.975 9 6.975C8.78333 6.975 8.60417 7.04583 8.4625 7.1875C8.32083 7.32917 8.25 7.50833 8.25 7.725V12L6.6 10.35C6.46667 10.2167 6.3 10.15 6.1 10.15C5.9 10.15 5.73333 10.2167 5.6 10.35C5.46667 10.4833 5.4 10.65 5.4 10.85C5.4 11.05 5.46667 11.2167 5.6 11.35L8.475 14.225C8.55833 14.3083 8.64167 14.3667 8.725 14.4C8.80833 14.4333 8.9 14.45 9 14.45ZM1.5 17V4.65V17Z" fill="#121212"/>
</svg>
