<svg width="22" height="22" viewBox="0 0 22 22" fill="none" xmlns="http://www.w3.org/2000/svg">
<path d="M9.89968 20.9662L0.633008 11.6996C0.521897 11.5885 0.444119 11.4774 0.399675 11.3662C0.35523 11.2551 0.333008 11.1329 0.333008 10.9996C0.333008 10.8662 0.35523 10.744 0.399675 10.6329C0.444119 10.5218 0.521897 10.4107 0.633008 10.2996L9.93301 0.999577C10.1108 0.821799 10.333 0.73291 10.5997 0.73291C10.8663 0.73291 11.0997 0.83291 11.2997 1.03291C11.4997 1.23291 11.5997 1.46624 11.5997 1.73291C11.5997 1.99958 11.4997 2.23291 11.2997 2.43291L3.73301 9.99958H20.2663C20.5552 9.99958 20.7941 10.094 20.983 10.2829C21.1719 10.4718 21.2663 10.7107 21.2663 10.9996C21.2663 11.2885 21.1719 11.5274 20.983 11.7162C20.7941 11.9051 20.5552 11.9996 20.2663 11.9996H3.73301L11.333 19.5996C11.5108 19.7774 11.5997 19.9996 11.5997 20.2662C11.5997 20.5329 11.4997 20.7662 11.2997 20.9662C11.0997 21.1662 10.8663 21.2662 10.5997 21.2662C10.333 21.2662 10.0997 21.1662 9.89968 20.9662Z" fill="black"/>
</svg>
