<svg width="20" height="20" viewBox="0 0 20 20" fill="none" xmlns="http://www.w3.org/2000/svg">
<path d="M1.6665 4.99984H18.3332M8.33317 9.1665V13.3332M11.6665 9.1665V13.3332M3.33317 4.99984H16.6665L15.3498 16.8498C15.3047 17.2576 15.1107 17.6345 14.805 17.9082C14.4994 18.1819 14.1035 18.3332 13.6932 18.3332H6.3065C5.8962 18.3332 5.50031 18.1819 5.19463 17.9082C4.88895 17.6345 4.69497 17.2576 4.64984 16.8498L3.33317 4.99984ZM6.12067 2.62234C6.25546 2.33648 6.46876 2.09483 6.73567 1.9256C7.00259 1.75636 7.31212 1.6665 7.62817 1.6665H12.3715C12.6877 1.66634 12.9974 1.75613 13.2645 1.92537C13.5316 2.09462 13.745 2.33635 13.8798 2.62234L14.9998 4.99984H4.99984L6.12067 2.62234V2.62234Z" stroke="#121212" stroke-width="1.5" stroke-linecap="round" stroke-linejoin="round"/>
</svg>
