<svg width="22" height="23" viewBox="0 0 22 23" fill="none" xmlns="http://www.w3.org/2000/svg">
<path d="M19.5588 12.2148C19.3851 12.0171 19.2893 11.763 19.2893 11.4998C19.2893 11.2367 19.3851 10.9825 19.5588 10.7848L20.9455 9.22485C21.0983 9.0544 21.1931 8.83994 21.2165 8.61223C21.2399 8.38452 21.1905 8.15526 21.0755 7.95735L18.9088 4.20901C18.7949 4.01133 18.6216 3.85463 18.4134 3.76126C18.2053 3.66788 17.973 3.6426 17.7496 3.68901L15.713 4.10068C15.4538 4.15423 15.184 4.11107 14.9545 3.97935C14.725 3.84762 14.5516 3.63645 14.4671 3.38568L13.8063 1.40318C13.7336 1.18801 13.5952 1.00112 13.4105 0.868924C13.2258 0.736733 13.0042 0.665926 12.7771 0.666512H8.44379C8.20755 0.654182 7.97377 0.719516 7.77815 0.852536C7.58254 0.985556 7.43584 1.17895 7.36046 1.40318L6.75379 3.38568C6.66929 3.63645 6.49593 3.84762 6.26641 3.97935C6.0369 4.11107 5.76711 4.15423 5.50796 4.10068L3.41712 3.68901C3.20539 3.65909 2.98953 3.6925 2.79675 3.78504C2.60397 3.87757 2.44288 4.02509 2.33379 4.20901L0.167124 7.95735C0.049214 8.15305 -0.0038021 8.38102 0.0156551 8.60867C0.0351123 8.83632 0.126046 9.05199 0.275457 9.22485L1.65129 10.7848C1.82497 10.9825 1.92075 11.2367 1.92075 11.4998C1.92075 11.763 1.82497 12.0171 1.65129 12.2148L0.275457 13.7748C0.126046 13.9477 0.0351123 14.1634 0.0156551 14.391C-0.0038021 14.6187 0.049214 14.8466 0.167124 15.0423L2.33379 18.7907C2.44765 18.9884 2.621 19.1451 2.82915 19.2384C3.03729 19.3318 3.2696 19.3571 3.49296 19.3107L5.52962 18.899C5.78878 18.8455 6.05857 18.8886 6.28808 19.0203C6.51759 19.1521 6.69096 19.3632 6.77546 19.614L7.43629 21.5965C7.51167 21.8207 7.65837 22.0141 7.85399 22.1472C8.0496 22.2802 8.28339 22.3455 8.51962 22.3332H12.853C13.0801 22.3338 13.3016 22.263 13.4863 22.1308C13.671 21.9986 13.8094 21.8117 13.8821 21.5965L14.543 19.614C14.6275 19.3632 14.8008 19.1521 15.0303 19.0203C15.2598 18.8886 15.5296 18.8455 15.7888 18.899L17.8255 19.3107C18.0488 19.3571 18.2811 19.3318 18.4893 19.2384C18.6974 19.1451 18.8708 18.9884 18.9846 18.7907L21.1513 15.0423C21.2663 14.8444 21.3157 14.6152 21.2923 14.3875C21.269 14.1598 21.1741 13.9453 21.0213 13.7748L19.5588 12.2148ZM17.9446 13.6665L18.8113 14.6415L17.4246 17.0465L16.1463 16.7865C15.3661 16.627 14.5544 16.7596 13.8654 17.159C13.1765 17.5584 12.6581 18.1968 12.4088 18.9532L11.9971 20.1665H9.22379L8.83379 18.9315C8.58447 18.1752 8.06612 17.5367 7.37715 17.1373C6.68817 16.7379 5.87653 16.6054 5.09629 16.7648L3.81796 17.0248L2.40962 14.6307L3.27629 13.6557C3.80924 13.0598 4.10388 12.2884 4.10388 11.489C4.10388 10.6896 3.80924 9.9182 3.27629 9.32235L2.40962 8.34735L3.79629 5.96401L5.07462 6.22401C5.85486 6.3835 6.6665 6.25097 7.35548 5.85156C8.04445 5.45216 8.5628 4.81368 8.81212 4.05735L9.22379 2.83318H11.9971L12.4088 4.06818C12.6581 4.82452 13.1765 5.46299 13.8654 5.86239C14.5544 6.2618 15.3661 6.39434 16.1463 6.23485L17.4246 5.97485L18.8113 8.37985L17.9446 9.35485C17.4177 9.94934 17.1267 10.7163 17.1267 11.5107C17.1267 12.3051 17.4177 13.072 17.9446 13.6665ZM10.6105 7.16651C9.75341 7.16651 8.9156 7.42066 8.20299 7.89681C7.49037 8.37296 6.93496 9.04974 6.60698 9.84155C6.279 10.6334 6.19319 11.5047 6.36039 12.3452C6.52759 13.1858 6.9403 13.9579 7.54633 14.564C8.15236 15.17 8.92448 15.5827 9.76507 15.7499C10.6057 15.9171 11.4769 15.8313 12.2688 15.5033C13.0606 15.1753 13.7373 14.6199 14.2135 13.9073C14.6896 13.1947 14.9438 12.3569 14.9438 11.4998C14.9438 10.3506 14.4872 9.24837 13.6746 8.43572C12.8619 7.62306 11.7597 7.16651 10.6105 7.16651ZM10.6105 13.6665C10.1819 13.6665 9.76303 13.5394 9.40672 13.3014C9.05042 13.0633 8.77271 12.7249 8.60872 12.329C8.44473 11.9331 8.40182 11.4974 8.48542 11.0772C8.56902 10.6569 8.77538 10.2708 9.07839 9.96778C9.38141 9.66477 9.76747 9.45841 10.1878 9.37481C10.6081 9.29121 11.0437 9.33412 11.4396 9.49811C11.8355 9.6621 12.1739 9.9398 12.412 10.2961C12.6501 10.6524 12.7771 11.0713 12.7771 11.4998C12.7771 12.0745 12.5489 12.6256 12.1425 13.0319C11.7362 13.4382 11.1851 13.6665 10.6105 13.6665Z" fill="#474A57"/>
</svg>
