<svg width="16" height="17" viewBox="0 0 16 17" fill="none" xmlns="http://www.w3.org/2000/svg">
<path d="M8 12.6748C7.78333 12.6748 7.60417 12.604 7.4625 12.4623C7.32083 12.3206 7.25 12.1415 7.25 11.9248V3.3998L4.775 5.8748C4.625 6.0248 4.45 6.09564 4.25 6.0873C4.05 6.07897 3.875 5.9998 3.725 5.8498C3.575 5.6998 3.5 5.52064 3.5 5.3123C3.5 5.10397 3.575 4.9248 3.725 4.7748L7.475 1.0248C7.55833 0.941471 7.64167 0.883138 7.725 0.849804C7.80833 0.816471 7.9 0.799805 8 0.799805C8.1 0.799805 8.19167 0.816471 8.275 0.849804C8.35833 0.883138 8.44167 0.941471 8.525 1.0248L12.3 4.7998C12.45 4.9498 12.525 5.1248 12.525 5.3248C12.525 5.5248 12.45 5.6998 12.3 5.8498C12.15 5.9998 11.9708 6.0748 11.7625 6.0748C11.5542 6.0748 11.375 5.9998 11.225 5.8498L8.75 3.3998V11.9248C8.75 12.1415 8.67917 12.3206 8.5375 12.4623C8.39583 12.604 8.21667 12.6748 8 12.6748ZM1.5 16.4998C1.1 16.4998 0.75 16.3498 0.45 16.0498C0.15 15.7498 0 15.3998 0 14.9998V12.1748C0 11.9581 0.0708334 11.779 0.2125 11.6373C0.354167 11.4956 0.533333 11.4248 0.75 11.4248C0.966667 11.4248 1.14583 11.4956 1.2875 11.6373C1.42917 11.779 1.5 11.9581 1.5 12.1748V14.9998H14.5V12.1748C14.5 11.9581 14.5708 11.779 14.7125 11.6373C14.8542 11.4956 15.0333 11.4248 15.25 11.4248C15.4667 11.4248 15.6458 11.4956 15.7875 11.6373C15.9292 11.779 16 11.9581 16 12.1748V14.9998C16 15.3998 15.85 15.7498 15.55 16.0498C15.25 16.3498 14.9 16.4998 14.5 16.4998H1.5Z" fill="#121212"/>
</svg>
