<svg width="21" height="20" viewBox="0 0 21 20" fill="none" xmlns="http://www.w3.org/2000/svg">
<circle cx="10" cy="10" r="10" fill="#CFE436"/>
<path d="M8.37496 14.5415C8.26385 14.4026 8.20482 14.2498 8.19788 14.0832C8.19093 13.9165 8.24996 13.7707 8.37496 13.6457L12.0416 9.97901L8.35413 6.29151C8.24302 6.1804 8.19093 6.03109 8.19788 5.84359C8.20482 5.65609 8.26385 5.50679 8.37496 5.39568C8.51385 5.25679 8.66316 5.19082 8.82288 5.19776C8.9826 5.20471 9.12496 5.27068 9.24996 5.39568L13.3958 9.54151C13.4652 9.61096 13.5139 9.6804 13.5416 9.74984C13.5694 9.81929 13.5833 9.89568 13.5833 9.97901C13.5833 10.0623 13.5694 10.1387 13.5416 10.2082C13.5139 10.2776 13.4652 10.3471 13.3958 10.4165L9.2708 14.5415C9.1458 14.6665 8.99996 14.7255 8.83329 14.7186C8.66663 14.7117 8.51385 14.6526 8.37496 14.5415V14.5415Z" fill="black"/>
</svg>
