<svg width="386" height="285" viewBox="0 0 386 285" fill="none" xmlns="http://www.w3.org/2000/svg">
<g clip-path="url(#clip0_2731_12321)">
<path d="M128.765 276.448C117.012 276.448 105.278 276.265 93.5603 275.9C76.8179 275.377 59.5053 274.838 43.4139 267.087C32.1573 261.665 22.1879 252.967 14.5836 241.931C9.5669 234.594 5.83081 226.459 3.53422 217.873C2.41076 213.742 1.59549 209.533 1.09514 205.282C-0.275079 193.796 0.695814 182.152 3.94923 171.052C5.52919 165.741 7.68197 160.617 10.3696 155.771C22.1044 134.667 43.5078 120.5 69.0919 116.904C69.3035 116.88 69.5168 116.876 69.7291 116.892C69.8442 116.897 69.9589 116.903 70.0758 116.899L70.2263 116.857C70.6143 116.74 71.0104 116.652 71.4113 116.593C110.869 111.491 152.581 121.813 192.036 146.442C222.542 165.488 262.971 175.744 315.634 177.796L316.382 177.83C331.042 178.561 345.223 183.81 357.393 193.01C369.284 201.928 378.342 214.096 383.475 228.046C384.096 229.733 384.665 231.489 385.166 233.266C386.117 236.626 385.015 240.021 382.143 242.605V242.608L382.012 242.726C381.697 242.998 381.364 243.26 381.025 243.503L380.625 243.789C377.26 246.197 374.602 248.099 371.42 249.576C369.273 250.563 367.02 251.302 364.705 251.778C351.871 254.495 338.839 257.014 325.969 259.266C300.976 263.643 275.324 267.253 249.726 269.997C209.549 274.296 169.171 276.45 128.765 276.448ZM69.4299 117.639C69.3514 117.639 69.2729 117.643 69.195 117.653C43.85 121.216 22.6492 135.243 11.0308 156.139C8.3697 160.937 6.23823 166.01 4.67398 171.269C1.45004 182.27 0.4882 193.81 1.84648 205.193C2.34244 209.407 3.15054 213.579 4.26414 217.674C6.53824 226.178 10.2381 234.235 15.2064 241.502C22.7362 252.429 32.6037 261.041 43.7423 266.405C59.6893 274.086 76.9202 274.624 93.5839 275.143C145.678 276.761 197.822 274.79 249.645 269.244C275.227 266.502 300.862 262.895 325.839 258.521C338.7 256.271 351.723 253.753 364.548 251.038C366.807 250.573 369.006 249.853 371.102 248.89C374.219 247.442 376.852 245.558 380.185 243.174L380.584 242.888C380.876 242.679 381.163 242.455 381.437 242.222L381.516 242.15C384.255 239.753 385.32 236.589 384.438 233.472V233.471C383.942 231.714 383.379 229.976 382.764 228.306C372.446 200.033 345.755 180.052 316.346 178.585L315.602 178.551C291.546 177.614 270.496 175.017 251.25 170.612C228.275 165.353 208.218 157.437 191.635 147.084C152.331 122.549 110.793 112.266 71.5077 117.343C71.1424 117.398 70.7816 117.479 70.4282 117.586L70.1569 117.652C70.0006 117.66 69.8473 117.654 69.6944 117.647C69.6037 117.643 69.5158 117.639 69.4299 117.639Z" fill="#F0F0F0"/>
<path d="M381.765 242.435V242.439C381.459 242.704 381.137 242.957 380.804 243.196C375.251 247.171 371.457 249.959 364.626 251.407C351.765 254.131 338.858 256.626 325.904 258.893C300.633 263.319 275.227 266.895 249.686 269.621C197.846 275.179 145.684 277.15 93.5721 275.521C76.2178 274.98 59.48 274.405 43.5781 266.746C31.9543 261.148 22.1877 252.3 14.895 241.717C7.50009 230.985 3.00266 218.287 1.4707 205.238C5.07148 203.666 8.89697 202.67 12.807 202.287C26.3788 200.994 39.735 205.964 52.0775 211.747C64.4238 217.527 76.5468 224.283 89.9144 226.95C109.614 230.88 129.949 225.535 148.835 218.692C167.722 211.85 186.313 203.399 206.232 200.816C232.948 197.347 259.755 204.689 285.696 211.959C313.327 219.702 340.96 227.446 368.594 235.192C372.543 236.296 376.64 237.48 379.719 240.188C380.482 240.859 381.168 241.613 381.765 242.435Z" fill="#E6E6E6"/>
<path d="M381.764 242.436V242.439C381.458 242.704 381.136 242.958 380.803 243.196C377.323 245.685 374.536 247.712 371.26 249.233C359.999 250.341 348.724 251.301 337.433 252.111C308.371 254.196 279.253 255.304 250.078 255.436C190.893 255.739 128.666 257.592 76.8449 228.845C59.602 219.279 34.6241 238.895 17.5421 228.406C12.6182 225.373 8.04283 221.807 3.8984 217.773C2.77909 213.661 1.96737 209.471 1.46998 205.238C0.0987335 193.804 1.06519 182.21 4.31068 171.161C5.88088 165.875 8.02314 160.776 10.6994 155.955C18.6352 158.803 26.2457 162.904 33.4893 167.246C46.7736 175.201 59.6911 184.233 74.4846 188.788C96.2911 195.502 119.883 191.81 142.011 186.257C164.139 180.704 186.119 173.306 208.924 172.682C239.51 171.846 268.95 183.235 297.421 194.443C325.983 205.688 354.549 216.932 383.118 228.175C383.746 229.881 384.307 231.612 384.802 233.369C385.812 236.94 384.348 240.174 381.764 242.436Z" fill="#F2F2F2"/>
<path d="M103.281 97.2218C98.9788 94.3218 99.3996 87.9767 103.949 85.4828C104.041 85.432 104.132 85.3795 104.221 85.3253C104.449 84.2335 104.677 83.1416 104.905 82.0497C106.247 83.4436 108.886 83.1805 109.926 81.5491C106.299 73.8109 101.528 66.662 95.7751 60.3421C94.521 58.9576 93.8174 57.1618 93.7972 55.2939C93.7769 53.426 94.4415 51.6154 95.6653 50.2041C95.6873 50.1785 95.7091 50.1526 95.7307 50.1266C98.9794 49.0294 102.056 47.476 104.867 45.513C95.2255 30.022 76.8401 17.7154 72.4701 0C59.3232 14.1182 57.8474 19.0906 44.7004 33.2088C44.7004 33.2088 32.2518 44.4419 29.5648 50.4788C30.225 51.1723 36.1357 52.8365 36.3629 54.2C40.8705 54.5613 48.6797 49.6207 48.6797 49.6207C48.6797 49.6207 31.6348 67.7924 26.4598 78.9853C25.9938 79.9932 25.5512 81.1441 25.9416 82.1837C26.2533 83.0137 27.3714 83.4922 28.0916 83.1625C27.2313 83.9922 26.5406 84.9812 26.0579 86.0746C27.5596 87.0335 29.3408 87.458 31.1135 87.2795C32.8863 87.1009 34.5471 86.3298 35.8274 85.0906C35.1066 86.4373 34.3858 87.784 33.665 89.1306L33.6663 89.1338C34.6401 89.452 35.514 90.0188 36.2017 90.7781C36.8894 91.5375 37.3671 92.4631 37.5875 93.4636C37.808 94.464 37.7636 95.5047 37.4588 96.4828C37.1539 97.4608 36.5991 98.3424 35.8493 99.0405C31.3763 103.201 27.2892 107.573 25.7916 110.453C24.3827 113.162 38.8487 116.427 42.1024 116.294C45.3562 116.16 48.3975 114.73 51.3362 113.327C51.193 114.667 51.4493 116.019 52.0729 117.214C53.6823 117.604 55.3535 117.669 56.9883 117.405C58.6232 117.141 60.1888 116.552 61.5931 115.675C61.4634 118.355 64.8438 119.834 67.1902 119.075C66.0188 137.606 66.8756 163.628 68.001 190.641H70.7931V120.144C71.536 120.52 72.3307 120.784 73.1512 120.928C78.8637 121.942 85.7571 122.558 89.4742 118.104C93.7524 122.418 101.592 122.336 105.846 118.037C105.427 118.778 106.068 120.027 107.016 120.223C108.133 120.455 109.219 119.791 110.168 119.157C114.461 116.287 118.754 113.417 123.047 110.547C117.749 106.975 110.223 101.902 103.281 97.2218Z" fill="#E6E6E6"/>
<path d="M232.153 88.5988C239.598 88.5988 245.634 82.5631 245.634 75.1177C245.634 67.6724 239.598 61.6367 232.153 61.6367C224.708 61.6367 218.672 67.6724 218.672 75.1177C218.672 82.5631 224.708 88.5988 232.153 88.5988Z" fill="#F2F2F2"/>
<path d="M262.326 68.736C261.547 66.1242 259.344 64.4192 256.682 64.0451C256.653 64.041 256.625 64.0465 256.596 64.0446C256.558 64.0331 256.52 64.0242 256.481 64.0181C252.71 63.5586 248.895 64.389 245.657 66.3742C242.536 68.3222 238.901 69.2033 235.225 69.3464C235.203 69.3472 235.182 69.3482 235.16 69.3493C233.794 69.4403 232.489 69.9502 231.423 70.8095C230.357 71.6688 229.581 72.8357 229.202 74.1515C229.162 74.3125 229.174 74.4823 229.236 74.636C229.299 74.7898 229.409 74.9197 229.55 75.0068C229.957 75.3519 230.44 75.5967 230.959 75.7217C232.078 75.9589 233.202 76.1762 234.329 76.3736C236.53 76.7586 238.742 77.0699 240.965 77.3075C245.478 77.7911 250.019 77.9628 254.555 77.8212C256.066 77.7741 257.524 77.724 258.908 77.0571C259.915 76.5597 260.776 75.8088 261.405 74.8782C261.998 73.9838 262.387 72.9704 262.547 71.9093C262.706 70.8481 262.631 69.765 262.326 68.736Z" fill="#E6E6E6"/>
<path d="M234.308 86.7106C233.528 84.0988 231.325 82.3938 228.664 82.0197C228.634 82.0156 228.606 82.0211 228.577 82.0192C228.54 82.0077 228.501 81.9988 228.462 81.9927C224.692 81.5332 220.877 82.3636 217.638 84.3488C214.518 86.2968 210.882 87.178 207.207 87.321C207.185 87.3218 207.163 87.3228 207.141 87.3239C205.775 87.4149 204.47 87.9248 203.404 88.7841C202.338 89.6434 201.563 90.8104 201.184 92.1261C201.143 92.2872 201.155 92.4569 201.218 92.6106C201.28 92.7644 201.39 92.8943 201.532 92.9814C201.939 93.3265 202.421 93.5713 202.94 93.6963C204.06 93.9335 205.183 94.1508 206.311 94.3482C208.511 94.7332 210.723 95.0445 212.946 95.2821C217.459 95.7657 222 95.9374 226.537 95.7958C228.048 95.7487 229.505 95.6985 230.889 95.0317C231.897 94.5342 232.757 93.7833 233.386 92.8528C233.979 91.9584 234.369 90.945 234.528 89.8838C234.687 88.8227 234.612 87.7396 234.308 86.7106Z" fill="#E6E6E6"/>
<path d="M348.391 142.991C344.089 140.091 344.51 133.746 349.059 131.252C349.152 131.202 349.242 131.149 349.331 131.095C349.559 130.003 349.787 128.911 350.015 127.819C351.357 129.213 353.996 128.95 355.037 127.319C351.409 119.58 346.639 112.432 340.885 106.112C339.631 104.727 338.928 102.931 338.907 101.063C338.887 99.1956 339.552 97.3849 340.776 95.9736C340.798 95.948 340.819 95.9222 340.841 95.8961C344.09 94.7989 347.166 93.2455 349.977 91.2825C340.336 75.7915 321.95 63.4849 317.58 45.7695C304.433 59.8878 302.958 64.8601 289.811 78.9784C289.811 78.9784 277.362 90.2115 274.675 96.2483C275.335 96.9418 281.246 98.606 281.473 99.9695C285.981 100.331 293.79 95.3902 293.79 95.3902C293.79 95.3902 276.745 113.562 271.57 124.755C271.104 125.763 270.662 126.914 271.052 127.953C271.364 128.783 272.482 129.262 273.202 128.932C272.342 129.762 271.651 130.751 271.168 131.844C272.67 132.803 274.451 133.228 276.224 133.049C277.997 132.87 279.657 132.099 280.938 130.86C280.217 132.207 279.496 133.554 278.775 134.9L278.777 134.903C279.75 135.222 280.624 135.788 281.312 136.548C282 137.307 282.477 138.233 282.698 139.233C282.918 140.234 282.874 141.274 282.569 142.252C282.264 143.23 281.709 144.112 280.96 144.81C276.487 148.97 272.4 153.343 270.902 156.222C269.493 158.931 283.959 162.197 287.213 162.063C290.467 161.929 293.508 160.499 296.447 159.096C296.303 160.436 296.56 161.789 297.183 162.983C298.793 163.374 300.464 163.439 302.099 163.175C303.734 162.91 305.299 162.322 306.703 161.444C306.574 164.124 309.954 165.604 312.3 164.845C311.129 183.376 311.986 209.397 313.111 236.41H315.903V165.913C316.646 166.29 317.441 166.554 318.262 166.697C323.974 167.711 330.867 168.328 334.584 163.873C338.863 168.187 346.703 168.105 350.956 163.806C350.537 164.548 351.178 165.796 352.126 165.993C353.243 166.224 354.33 165.561 355.278 164.927C359.571 162.057 363.864 159.186 368.157 156.316C362.859 152.745 355.334 147.672 348.391 142.991Z" fill="#E6E6E6"/>
<path d="M24.3186 214.856C24.5986 214.869 24.8757 214.796 25.1125 214.646C25.3492 214.496 25.5342 214.277 25.6423 214.018C25.7504 213.76 25.7764 213.474 25.7168 213.201C25.6572 212.927 25.5149 212.678 25.3091 212.488C25.2747 212.351 25.25 212.252 25.2155 212.115C25.2278 212.085 25.2402 212.056 25.2527 212.026C25.5347 211.36 26.0073 210.792 26.611 210.393C27.2148 209.995 27.9228 209.784 28.6462 209.787C29.3695 209.789 30.076 210.006 30.6767 210.409C31.2775 210.811 31.7458 211.383 32.0229 212.051C33.1302 214.718 34.54 217.389 34.8871 220.209C35.04 221.456 34.9755 222.719 34.6965 223.943C37.2973 218.27 38.6478 212.104 38.6565 205.863C38.657 204.297 38.57 202.732 38.3958 201.176C38.2519 199.9 38.0522 198.633 37.7968 197.375C36.4028 190.551 33.41 184.155 29.064 178.712C26.9605 177.564 25.2594 175.799 24.1899 173.655C23.8025 172.884 23.5287 172.061 23.377 171.212C23.6142 171.243 23.8554 171.263 24.0927 171.278C24.1666 171.282 24.2444 171.286 24.3183 171.29L24.3462 171.291C24.607 171.303 24.8656 171.239 25.0909 171.107C25.3162 170.975 25.4985 170.781 25.6161 170.548C25.7336 170.315 25.7812 170.053 25.7532 169.793C25.7252 169.534 25.6228 169.288 25.4583 169.085C25.3558 168.959 25.2533 168.833 25.1508 168.707C24.9951 168.512 24.8357 168.322 24.6801 168.127C24.6621 168.109 24.6452 168.089 24.6295 168.069C24.4505 167.847 24.2716 167.629 24.0927 167.408C24.4193 166.901 24.8586 166.476 25.3764 166.167C27.1696 165.117 29.6436 165.844 30.9389 167.466C32.2381 169.088 32.4832 171.364 32.032 173.39C31.5883 175.115 30.8542 176.751 29.8614 178.229C29.9587 178.354 30.0598 178.474 30.1571 178.599C31.9347 180.885 33.4841 183.339 34.783 185.928C34.4671 183.028 34.8441 180.095 35.883 177.37C36.9358 174.83 38.9093 172.691 40.6471 170.495C42.7345 167.858 47.015 169.009 47.3827 172.352C47.3863 172.384 47.3898 172.417 47.3932 172.449C47.135 172.595 46.8824 172.749 46.6352 172.913C46.3246 173.12 46.0839 173.417 45.9447 173.763C45.8055 174.11 45.7743 174.491 45.8551 174.855C45.9359 175.22 46.1249 175.552 46.3975 175.807C46.6701 176.062 47.0134 176.229 47.3826 176.286L47.4204 176.292C47.3284 177.223 47.1659 178.145 46.9342 179.05C46.2627 181.579 45.0761 183.941 43.4489 185.989C41.8217 188.037 39.7888 189.727 37.4778 190.953C37.3261 191.031 37.1783 191.109 37.0266 191.183C37.7227 193.144 38.2791 195.153 38.6914 197.193C39.0604 198.992 39.3176 200.812 39.4616 202.642C39.638 204.949 39.6276 207.266 39.4305 209.57L39.4422 209.489C39.9401 206.926 41.3072 204.613 43.3126 202.942C46.2912 200.495 50.4993 199.594 53.7126 197.627C54.0541 197.408 54.4512 197.291 54.857 197.29C55.2628 197.289 55.6604 197.404 56.003 197.622C56.3456 197.839 56.6188 198.151 56.7904 198.518C56.962 198.886 57.0248 199.295 56.9715 199.697C56.9672 199.726 56.9628 199.755 56.9584 199.783C56.4794 199.978 56.013 200.203 55.5619 200.456C55.3038 200.602 55.0511 200.756 54.8039 200.92C54.4933 201.127 54.2527 201.424 54.1135 201.771C53.9743 202.117 53.943 202.498 54.0238 202.862C54.1046 203.227 54.2937 203.559 54.5662 203.814C54.8388 204.07 55.1822 204.237 55.5513 204.294L55.5892 204.299C55.6164 204.303 55.6397 204.307 55.6669 204.311C54.8485 206.265 53.6997 208.064 52.2711 209.629C50.5062 211.522 48.373 213.036 46.0025 214.076C43.6319 215.116 41.0739 215.661 38.4853 215.677H38.4814C37.7787 218.731 36.7605 221.703 35.4433 224.546H24.5906C24.5516 224.426 24.5167 224.301 24.4816 224.181C25.4862 224.244 26.4947 224.184 27.4847 224.002C26.6794 223.014 25.8743 222.018 25.069 221.03C25.0511 221.011 25.0342 220.992 25.0185 220.972C24.61 220.466 24.1977 219.964 23.7893 219.458L23.789 219.458C23.7673 217.908 23.9451 216.361 24.3183 214.857L24.3186 214.856Z" fill="#E6E6E6"/>
<path d="M347.727 225.448C348.007 225.461 348.284 225.388 348.521 225.238C348.757 225.088 348.942 224.869 349.051 224.61C349.159 224.352 349.185 224.066 349.125 223.792C349.065 223.519 348.923 223.27 348.717 223.079C348.683 222.942 348.658 222.844 348.624 222.707C348.636 222.677 348.648 222.647 348.661 222.618C348.943 221.952 349.415 221.384 350.019 220.985C350.623 220.587 351.331 220.376 352.054 220.378C352.778 220.381 353.484 220.597 354.085 221C354.686 221.403 355.154 221.975 355.431 222.643C356.538 225.31 357.948 227.981 358.295 230.801C358.448 232.047 358.384 233.311 358.105 234.535C360.705 228.862 362.056 222.696 362.065 216.455C362.065 214.889 361.978 213.324 361.804 211.768C361.66 210.492 361.46 209.225 361.205 207.967C359.811 201.143 356.818 194.747 352.472 189.304C350.369 188.156 348.668 186.391 347.598 184.247C347.211 183.476 346.937 182.653 346.785 181.804C347.022 181.835 347.264 181.854 347.501 181.87C347.575 181.874 347.653 181.878 347.727 181.882L347.754 181.883C348.015 181.895 348.274 181.831 348.499 181.699C348.724 181.567 348.907 181.373 349.024 181.14C349.142 180.907 349.189 180.645 349.161 180.385C349.133 180.125 349.031 179.88 348.866 179.677C348.764 179.551 348.662 179.425 348.559 179.299C348.403 179.104 348.244 178.914 348.088 178.719C348.07 178.701 348.053 178.681 348.038 178.661C347.859 178.439 347.68 178.221 347.501 178C347.828 177.493 348.267 177.068 348.785 176.759C350.578 175.708 353.052 176.436 354.347 178.058C355.646 179.68 355.891 181.956 355.44 183.982C354.996 185.707 354.262 187.343 353.27 188.821C353.367 188.946 353.468 189.066 353.565 189.191C355.343 191.477 356.892 193.931 358.191 196.519C357.875 193.62 358.252 190.687 359.291 187.962C360.344 185.422 362.317 183.283 364.055 181.087C366.143 178.449 370.423 179.6 370.791 182.944C370.795 182.976 370.798 183.008 370.801 183.041C370.543 183.186 370.291 183.341 370.043 183.505C369.733 183.712 369.492 184.008 369.353 184.355C369.214 184.702 369.183 185.082 369.263 185.447C369.344 185.812 369.533 186.143 369.806 186.399C370.078 186.654 370.422 186.821 370.791 186.878L370.829 186.884C370.737 187.814 370.574 188.736 370.342 189.642C369.671 192.17 368.484 194.533 366.857 196.581C365.23 198.629 363.197 200.319 360.886 201.545C360.734 201.623 360.587 201.701 360.435 201.775C361.74 205.473 362.558 209.325 362.87 213.234C363.046 215.541 363.036 217.857 362.839 220.162L362.85 220.08C363.348 217.518 364.715 215.205 366.721 213.534C369.699 211.087 373.908 210.186 377.121 208.219C377.462 208 377.859 207.883 378.265 207.882C378.671 207.881 379.069 207.996 379.411 208.214C379.754 208.431 380.027 208.742 380.199 209.11C380.37 209.478 380.433 209.887 380.38 210.289C380.375 210.318 380.371 210.347 380.367 210.375C379.888 210.57 379.421 210.795 378.97 211.048C378.712 211.194 378.459 211.348 378.212 211.512C377.902 211.719 377.661 212.016 377.522 212.362C377.383 212.709 377.351 213.09 377.432 213.454C377.513 213.819 377.702 214.151 377.974 214.406C378.247 214.661 378.59 214.829 378.96 214.885L378.997 214.891C379.025 214.895 379.048 214.899 379.075 214.903C378.257 216.857 377.108 218.656 375.679 220.22C373.914 222.114 371.781 223.628 369.411 224.668C367.04 225.708 364.482 226.253 361.894 226.269H361.89C361.187 229.323 360.169 232.295 358.852 235.138H347.999C347.96 235.018 347.925 234.893 347.89 234.773C348.894 234.836 349.903 234.776 350.893 234.594C350.088 233.606 349.282 232.61 348.477 231.622C348.459 231.603 348.442 231.584 348.427 231.563C348.018 231.058 347.606 230.556 347.197 230.05L347.197 230.05C347.175 228.5 347.353 226.953 347.727 225.448L347.727 225.448Z" fill="#E6E6E6"/>
<path d="M218.742 194.054C219.022 194.067 219.299 193.993 219.536 193.843C219.773 193.693 219.958 193.474 220.066 193.216C220.174 192.957 220.2 192.672 220.141 192.398C220.081 192.124 219.939 191.875 219.733 191.685C219.699 191.548 219.674 191.45 219.639 191.313C219.652 191.283 219.664 191.253 219.677 191.223C219.959 190.557 220.431 189.989 221.035 189.591C221.639 189.192 222.347 188.981 223.07 188.984C223.793 188.987 224.5 189.203 225.101 189.606C225.701 190.009 226.17 190.58 226.447 191.248C227.554 193.915 228.964 196.587 229.311 199.406C229.464 200.653 229.399 201.916 229.12 203.141C231.721 197.468 233.072 191.301 233.08 185.061C233.081 183.494 232.994 181.93 232.82 180.373C232.676 179.097 232.476 177.83 232.221 176.573C230.827 169.748 227.834 163.352 223.488 157.909C221.384 156.761 219.683 154.996 218.614 152.852C218.226 152.081 217.952 151.259 217.801 150.409C218.038 150.44 218.279 150.46 218.516 150.475C218.59 150.479 218.668 150.483 218.742 150.487L218.77 150.488C219.031 150.5 219.289 150.436 219.515 150.304C219.74 150.172 219.922 149.978 220.04 149.745C220.157 149.512 220.205 149.25 220.177 148.99C220.149 148.731 220.047 148.485 219.882 148.282C219.78 148.156 219.677 148.03 219.575 147.904C219.419 147.71 219.26 147.519 219.104 147.325C219.086 147.306 219.069 147.287 219.053 147.266C218.874 147.045 218.695 146.827 218.517 146.605C218.843 146.098 219.282 145.673 219.8 145.364C221.593 144.314 224.067 145.041 225.363 146.663C226.662 148.285 226.907 150.561 226.456 152.588C226.012 154.312 225.278 155.949 224.285 157.427C224.383 157.551 224.484 157.672 224.581 157.796C226.359 160.082 227.908 162.537 229.207 165.125C228.891 162.225 229.268 159.292 230.307 156.567C231.36 154.027 233.333 151.888 235.071 149.692C237.158 147.055 241.439 148.206 241.807 151.549C241.81 151.582 241.814 151.614 241.817 151.646C241.559 151.792 241.306 151.946 241.059 152.11C240.748 152.317 240.508 152.614 240.369 152.961C240.229 153.307 240.198 153.688 240.279 154.052C240.36 154.417 240.549 154.749 240.821 155.004C241.094 155.26 241.437 155.427 241.806 155.484L241.844 155.49C241.752 156.42 241.59 157.342 241.358 158.247C240.687 160.776 239.5 163.138 237.873 165.186C236.245 167.235 234.213 168.925 231.902 170.151C231.75 170.228 231.602 170.306 231.45 170.38C232.755 174.078 233.574 177.93 233.885 181.84C234.062 184.146 234.051 186.463 233.854 188.768L233.866 188.686C234.364 186.123 235.731 183.811 237.736 182.139C240.715 179.692 244.923 178.791 248.136 176.825C248.478 176.605 248.875 176.488 249.281 176.487C249.687 176.486 250.084 176.602 250.427 176.819C250.769 177.037 251.043 177.348 251.214 177.716C251.386 178.083 251.449 178.492 251.395 178.895C251.391 178.923 251.387 178.952 251.382 178.981C250.903 179.176 250.437 179.4 249.986 179.654C249.728 179.799 249.475 179.954 249.228 180.117C248.917 180.325 248.676 180.621 248.537 180.968C248.398 181.314 248.367 181.695 248.448 182.06C248.528 182.424 248.717 182.756 248.99 183.012C249.263 183.267 249.606 183.434 249.975 183.491L250.013 183.497C250.04 183.501 250.064 183.505 250.091 183.508C249.272 185.463 248.124 187.261 246.695 188.826C244.93 190.72 242.797 192.233 240.426 193.273C238.056 194.313 235.498 194.858 232.909 194.875H232.905C232.202 197.928 231.184 200.901 229.867 203.744H219.014C218.975 203.623 218.94 203.499 218.905 203.378C219.91 203.441 220.919 203.381 221.908 203.199C221.103 202.211 220.298 201.215 219.493 200.227C219.475 200.209 219.458 200.189 219.442 200.169C219.034 199.663 218.621 199.161 218.213 198.656L218.213 198.655C218.191 197.105 218.369 195.559 218.742 194.054L218.742 194.054Z" fill="#E6E6E6"/>
<path d="M149.783 276.523L154.324 275.172L151.32 256.607L144.617 258.6L149.783 276.523Z" fill="#FFB6B6"/>
<path d="M121.93 269.194C122.206 269.435 122.483 269.673 122.763 269.911C123.321 270.387 123.885 270.858 124.45 271.323C124.735 271.555 125.022 271.788 125.307 272.018L125.305 272.027L125.323 272.033L125.329 272.037L125.788 272.231L126.76 270.528L127.208 269.744L127.842 268.633L129.003 266.602L135.116 255.904L128.677 253.189L128.263 254.176L128.26 254.176L128.055 254.665L124.21 263.789L123.425 265.655L123.4 265.711L122.928 266.825L122.521 267.791L122.067 268.869L121.93 269.194Z" fill="#FFB6B6"/>
<path d="M88.2853 222.896C88.6021 223.646 88.9287 224.394 89.2593 225.136C89.8734 226.517 90.5121 227.884 91.1754 229.235C91.1749 229.238 91.178 229.238 91.1806 229.242C91.6067 229.784 92.0945 230.274 92.6341 230.702C92.6559 230.725 92.6819 230.742 92.7042 230.761C93.1024 231.072 93.5374 231.332 93.9994 231.535C94.1662 231.606 94.336 231.678 94.5028 231.749C95.1056 231.997 95.7057 232.222 96.3052 232.431C97.372 232.801 98.4371 233.113 99.5006 233.37C99.586 233.393 99.6718 233.413 99.7577 233.433C104.144 234.461 108.546 234.621 113.191 234.477C115.485 234.407 117.838 234.262 120.274 234.111C121.071 234.059 121.87 234.011 122.679 233.964C122.739 233.961 122.804 233.955 122.868 233.953C124.023 233.884 125.196 233.822 126.397 233.768C127.908 233.699 129.465 233.646 131.078 233.619L130.616 235.812C130.253 237.498 129.634 239.119 128.78 240.617C127.8 242.471 127.024 243.937 127.632 247.343L127.924 248.991C127.522 249.723 127.294 250.538 127.26 251.373C127.225 252.207 127.384 253.039 127.725 253.801L127.808 253.983L121.505 264.654L121.097 265.346L123.401 265.711L126.235 266.163L131.038 266.923L140.171 254.116L140.608 253.505L140.614 253.471L144.13 226.636C144.158 226.399 144.177 226.157 144.183 225.917C144.226 224.825 144.052 223.736 143.67 222.713C143.288 221.69 142.706 220.753 141.958 219.957C141.242 219.189 140.38 218.571 139.423 218.139C138.466 217.707 137.433 217.469 136.383 217.44L133.963 217.371L129.016 217.23L125.532 217.133L125.462 217.131L115.187 216.839L114.931 213.778L114.806 213.708L110.813 211.483L97.0022 203.786L96.9669 203.768L96.0585 203.262L95.9143 203.43C95.8713 203.48 95.8284 203.53 95.7885 203.581C94.5647 205.139 93.5031 206.818 92.6204 208.592C91.1502 211.484 89.846 214.459 88.7141 217.5C88.6646 217.632 88.6201 217.752 88.5807 217.86L88.566 217.893C88.5484 217.944 88.5368 217.977 88.5322 217.986C87.9712 219.34 87.9348 221.096 88.2853 222.896Z" fill="#2F2E41"/>
<path d="M89.2254 212.951C89.3034 212.76 89.3942 212.568 89.4872 212.382C90.2139 210.98 91.0173 209.62 91.8938 208.307C92.881 206.81 94.0322 205.222 95.3734 203.517C96.0223 202.692 96.7151 201.836 97.452 200.951C97.8211 200.507 98.203 200.056 98.5978 199.597C98.6138 199.575 98.6309 199.555 98.6489 199.535L98.7624 199.4L112.961 203.639L112.955 205.584L113.984 208.338L113.915 208.419C113.918 208.42 113.918 208.417 113.915 208.419V208.041L114.293 208.419L117.954 212.943L117.979 212.944L126.16 213.174L134.59 213.413L139.119 213.542C140.168 213.571 141.202 213.809 142.159 214.241C143.116 214.673 143.977 215.291 144.693 216.059C145.441 216.855 146.023 217.792 146.405 218.815C146.787 219.839 146.961 220.928 146.918 222.019C146.912 222.24 146.895 222.467 146.869 222.688L149.484 233.272C151.05 239.601 151.651 246.131 151.268 252.64L152.783 262.941L152.34 262.912L145.738 262.486L143.994 262.375L141.086 256.253C140.755 255.555 140.448 254.842 140.172 254.118C139.715 252.935 139.335 251.724 139.033 250.492L133.933 229.721C133.284 229.73 132.641 229.734 132.005 229.734C129.063 229.745 126.249 229.688 123.564 229.563C114.831 229.163 107.39 228.06 100.904 226.2C99.0822 225.679 97.3339 225.097 95.6589 224.454C95.0443 224.22 94.4396 223.977 93.8448 223.725C93.7045 223.667 93.5672 223.611 93.4305 223.551C92.2012 223.017 91.1255 222.184 90.3016 221.127C89.4777 220.07 88.932 218.824 88.7144 217.502C88.4478 215.967 88.6251 214.388 89.2254 212.951Z" fill="#2F2E41"/>
<path d="M148.89 273.427L153.804 271.961L154.575 271.73L155.275 274.721L162.984 277.745C163.366 277.894 163.689 278.161 163.908 278.507C164.126 278.853 164.229 279.26 164.199 279.669C164.17 280.077 164.011 280.465 163.746 280.777C163.48 281.088 163.122 281.307 162.723 281.4L154.414 283.349L152.289 280.727L152.423 283.816L149.293 284.55L147.695 273.785L148.89 273.427Z" fill="#2F2E41"/>
<path d="M121.504 264.654L121.096 265.346L121.387 265.392L121.504 264.654Z" fill="#2F2E41"/>
<path d="M122.954 265.801L127.478 268.218L128.188 268.596L126.58 271.213L129.931 278.786C130.097 279.161 130.139 279.578 130.051 279.978C129.963 280.378 129.749 280.739 129.441 281.009C129.133 281.278 128.747 281.442 128.339 281.477C127.931 281.511 127.522 281.414 127.173 281.2L119.898 276.738L120.233 273.38L118.155 275.669L115.414 273.989L121.854 265.215L122.954 265.801Z" fill="#2F2E41"/>
<path d="M155.641 128.053C155.684 128.554 155.617 129.059 155.444 129.531C155.272 130.004 154.998 130.433 154.641 130.788C154.285 131.143 153.855 131.416 153.382 131.587C152.909 131.758 152.404 131.823 151.903 131.778L146.872 142.926L143.475 137.554L148.773 127.792C148.905 126.955 149.339 126.195 149.993 125.657C150.647 125.119 151.476 124.839 152.323 124.872C153.169 124.904 153.975 125.245 154.586 125.832C155.198 126.418 155.573 127.208 155.641 128.053H155.641Z" fill="#FFB6B6"/>
<path d="M142.844 161.218L119.794 178.855C117.965 180.251 115.657 180.865 113.377 180.561C111.096 180.258 109.029 179.062 107.629 177.237C106.856 176.225 106.314 175.056 106.043 173.811C105.771 172.566 105.778 171.278 106.061 170.036C106.344 168.794 106.897 167.629 107.68 166.625C108.464 165.621 109.459 164.802 110.595 164.226L133.575 152.567L143.855 132.539L150.758 134.59L142.844 161.218Z" fill="#CFE436"/>
<path d="M93.7522 182.171L93.2849 199.285C86.8537 210.15 86.1223 215.426 87.9024 218.239L114.346 208.579L114.792 207.515L116.173 199.869L118.677 191.979C119.117 191.154 125.102 186.089 119.492 176.482L108.205 161.277L99.1622 160.76C97.6713 164.586 100.361 166.674 97.6745 167.556C91.6004 173.124 92.4927 174.03 93.7522 182.171Z" fill="#CFE436"/>
<path d="M75.7687 230.217C75.5639 229.757 75.4624 229.258 75.4712 228.755C75.4801 228.252 75.5992 227.757 75.82 227.305C76.0409 226.853 76.3582 226.455 76.7496 226.138C77.141 225.822 77.597 225.596 78.0854 225.475L79.2008 213.295L84.1655 217.263L82.3452 228.221C82.4939 229.055 82.3315 229.915 81.8889 230.637C81.4462 231.359 80.7539 231.894 79.9433 232.14C79.1327 232.386 78.26 232.326 77.4906 231.971C76.7212 231.617 76.1085 230.993 75.7687 230.217V230.217Z" fill="#FFB6B6"/>
<path d="M77.0371 194.691L93.066 170.495C94.3386 168.578 96.3195 167.245 98.5741 166.787C100.829 166.329 103.173 166.785 105.092 168.053C106.154 168.756 107.048 169.685 107.71 170.773C108.373 171.861 108.788 173.081 108.926 174.347C109.064 175.613 108.921 176.894 108.509 178.099C108.096 179.304 107.423 180.404 106.537 181.319L88.6232 199.842L85.4454 222.129L78.2512 222.443L77.0371 194.691Z" fill="#CFE436"/>
<path d="M111.008 139.995C114.205 146.297 112.117 153.597 106.183 157.436C99.7669 161.587 91.4364 160.678 88.7418 152.611C85.7412 143.628 88.2063 139.774 93.5666 135.17C99.8482 129.774 107.553 133.185 111.008 139.995Z" fill="#2F2E41"/>
<path d="M95.268 154.036C96.8957 156.169 99.3036 157.568 101.963 157.927C104.622 158.286 107.314 157.574 109.449 155.949C111.584 154.323 112.986 151.917 113.347 149.258C113.709 146.6 113 143.906 111.377 141.77L111.289 141.654C109.631 139.579 107.223 138.238 104.585 137.922C101.948 137.605 99.2911 138.338 97.189 139.963C95.0869 141.588 93.7076 143.973 93.3487 146.606C92.9898 149.238 93.68 151.906 95.2705 154.034L95.268 154.036Z" fill="#FFB6B6"/>
<path d="M114.105 138.976C112.46 140.541 110.455 141.677 108.266 142.284C107.827 141.777 107.307 141.346 106.727 141.009C107.005 141.587 107.195 142.202 107.292 142.836C106.316 144.862 102.329 146.318 98.5192 147.807L93.4727 138.901L100.152 135.116C105.52 131.405 111.838 132.989 114.105 138.976Z" fill="#2F2E41"/>
<path d="M89.6661 135.181C88.7572 134.761 87.5793 135.02 86.7248 135.611C85.9116 136.229 85.2541 137.029 84.8048 137.946C83.9878 139.43 83.4008 141.03 83.0639 142.691C82.7758 144.127 82.8246 145.864 84.1135 146.614C85.189 147.239 86.7267 146.845 87.7152 146.011C88.7037 145.176 89.2605 144.002 89.7428 142.857C90.225 141.711 90.6812 140.523 91.5384 139.572L90.6479 139.987C90.9293 139.133 91.0605 138.236 91.0355 137.337C91.0151 136.889 90.878 136.455 90.6378 136.077C90.3976 135.698 90.0626 135.39 89.6661 135.181Z" fill="#2F2E41"/>
<path d="M101.219 136.35L94.0528 140.41C92.115 141.508 90.6927 143.331 90.0989 145.478C89.5051 147.624 89.7884 149.919 90.8864 151.857C92.4858 154.679 95.0801 156.803 98.1623 157.815C101.244 158.826 104.593 158.652 107.554 157.327L101.005 151.546L109.889 156.072L111.785 154.997C102.258 153.265 100.42 145.792 101.219 136.35Z" fill="#2F2E41"/>
</g>
<defs>
<clipPath id="clip0_2731_12321">
<rect width="385" height="284.55" fill="white" transform="translate(0.5)"/>
</clipPath>
</defs>
</svg>
