<svg width="14" height="19" viewBox="0 0 14 19" fill="none" xmlns="http://www.w3.org/2000/svg">
<path d="M1.5835 18.333C1.23627 18.333 0.941135 18.2115 0.698079 17.9684C0.455024 17.7254 0.333496 17.4302 0.333496 17.083V8.04134C0.333496 7.69412 0.455024 7.39898 0.698079 7.15592C0.941135 6.91287 1.23627 6.79134 1.5835 6.79134H9.7085V4.79134C9.7085 4.04134 9.44461 3.40245 8.91683 2.87467C8.38905 2.3469 7.75016 2.08301 7.00016 2.08301C6.34738 2.08301 5.77794 2.27745 5.29183 2.66634C4.80572 3.05523 4.49322 3.55523 4.35433 4.16634C4.31266 4.3469 4.22933 4.4962 4.10433 4.61426C3.97933 4.73231 3.8335 4.79134 3.66683 4.79134C3.48627 4.79134 3.33697 4.72884 3.21891 4.60384C3.10086 4.47884 3.05572 4.33301 3.0835 4.16634C3.23627 3.20801 3.67725 2.41287 4.40641 1.78092C5.13558 1.14898 6.00016 0.833008 7.00016 0.833008C8.09738 0.833008 9.03141 1.21842 9.80225 1.98926C10.5731 2.76009 10.9585 3.69412 10.9585 4.79134V6.79134H12.4168C12.7641 6.79134 13.0592 6.91287 13.3022 7.15592C13.5453 7.39898 13.6668 7.69412 13.6668 8.04134V17.083C13.6668 17.4302 13.5453 17.7254 13.3022 17.9684C13.0592 18.2115 12.7641 18.333 12.4168 18.333H1.5835ZM1.5835 17.083H12.4168V8.04134H1.5835V17.083ZM7.00016 14.1663C7.44461 14.1663 7.82308 14.0136 8.13558 13.708C8.44808 13.4025 8.60433 13.0344 8.60433 12.6038C8.60433 12.1872 8.44808 11.8087 8.13558 11.4684C7.82308 11.1281 7.44461 10.958 7.00016 10.958C6.55572 10.958 6.17725 11.1281 5.86475 11.4684C5.55225 11.8087 5.396 12.1872 5.396 12.6038C5.396 13.0344 5.55225 13.4025 5.86475 13.708C6.17725 14.0136 6.55572 14.1663 7.00016 14.1663ZM1.5835 8.04134V17.083V8.04134Z" fill="black"/>
</svg>
